<svg width="512" height="512" viewBox="0 0 512 512" fill="none" xmlns="http://www.w3.org/2000/svg">
<path d="M112.681 154.907C113.817 148.035 119.748 142.988 126.689 142.988H140.483C147.424 142.988 153.355 148.035 154.491 154.907L156.372 166.243C157.255 171.619 161.218 175.93 166.215 178.035C171.238 180.115 177.005 179.836 181.422 176.666L190.723 169.984C193.459 168.019 196.799 167.093 200.15 167.372C203.501 167.651 206.645 169.115 209.022 171.505L218.777 181.319C223.699 186.252 224.33 194.024 220.292 199.705L213.641 209.05C210.486 213.488 210.208 219.27 212.291 224.316C214.373 229.35 218.664 233.319 224.027 234.207L235.297 236.109C242.15 237.25 247.16 243.197 247.16 250.171V264.042C247.16 271.016 242.15 276.976 235.297 278.117L224.015 280.006C218.664 280.894 214.373 284.863 212.291 289.896C210.208 294.943 210.486 300.725 213.641 305.163L220.292 314.521C224.33 320.188 223.687 327.961 218.777 332.906L209.01 342.708C206.633 345.094 203.492 346.557 200.144 346.835C196.796 347.114 193.458 346.191 190.723 344.229L181.41 337.547C176.993 334.377 171.238 334.098 166.228 336.19C161.205 338.282 157.268 342.594 156.372 347.97L154.491 359.306C153.355 366.178 147.424 371.225 140.483 371.225H126.677C119.736 371.225 113.817 366.178 112.669 359.306L110.801 347.97C109.905 342.594 105.955 338.283 100.945 336.178C95.9218 334.098 90.1671 334.377 85.7501 337.547L76.4366 344.229C70.7954 348.287 63.0594 347.64 58.1376 342.708L48.3823 332.894C46.0039 330.506 44.5461 327.347 44.2688 323.98C43.9915 320.613 44.9125 317.256 46.8679 314.508L53.5187 305.163C56.6737 300.725 56.9513 294.943 54.8816 289.896C52.7993 284.863 48.4959 280.894 43.1451 280.006L31.8628 278.104C25.0228 276.963 20 271.004 20 264.042V250.171C20 243.197 25.0228 237.237 31.8628 236.096L43.1451 234.207C48.4959 233.319 52.7993 229.35 54.8816 224.316C56.9639 219.27 56.6863 213.488 53.5187 209.05L46.8806 199.692C44.9252 196.944 44.0041 193.587 44.2814 190.22C44.5588 186.853 46.0165 183.695 48.395 181.307L58.1502 171.505C60.527 169.115 63.6709 167.651 67.0219 167.372C70.373 167.093 73.7137 168.019 76.4492 169.984L85.7501 176.666C90.1671 179.836 95.9344 180.115 100.945 178.023C105.955 175.93 109.905 171.619 110.788 166.243L112.681 154.907Z" fill="white" stroke="white" stroke-width="11.5" stroke-linecap="round" stroke-linejoin="round"/>
<path d="M129.124 236.162V299.451H78.2618L129.124 236.162Z" fill="#1E75EB"/>
<path d="M129.124 213.33C129.124 220.305 126.445 226.994 121.676 231.926C116.907 236.858 110.438 239.628 103.693 239.628C96.9484 239.628 90.4798 236.858 85.7105 231.926C80.9412 226.994 78.2618 220.305 78.2618 213.33H129.124V213.33Z" fill="#1E75EB"/>
<path d="M137.505 299.451C137.505 292.476 140.199 285.787 144.996 280.855C149.792 275.923 156.298 273.152 163.081 273.152C169.864 273.152 176.369 275.923 181.166 280.855C185.962 285.787 188.657 292.476 188.657 299.451H137.505Z" fill="#1E75EB"/>
<path d="M137.505 276.619V213.33H188.657L137.505 276.619Z" fill="#1E75EB"/>
<path d="M341.357 23.5616C342.498 16.6891 348.458 11.6426 355.431 11.6426H369.29C376.264 11.6426 382.224 16.6891 383.365 23.5616L385.254 34.8973C386.142 40.2736 390.123 44.5847 395.145 46.6895C400.191 48.769 405.986 48.4901 410.424 45.3201L419.769 38.6379C422.517 36.6732 425.874 35.7478 429.241 36.0264C432.608 36.3051 435.766 37.7697 438.154 40.1594L447.956 49.9736C452.901 54.906 453.535 62.6788 449.477 68.3593L442.795 77.7043C439.625 82.1422 439.346 87.9242 441.438 92.9708C443.531 98.0047 447.842 101.973 453.231 102.861L464.554 104.763C471.439 105.904 476.473 111.851 476.473 118.825V132.697C476.473 139.67 471.439 145.63 464.554 146.771L453.218 148.66C447.842 149.548 443.531 153.517 441.438 158.551C439.346 163.597 439.625 169.379 442.795 173.817L449.477 183.175C453.535 188.843 452.888 196.615 447.956 201.561L438.142 211.362C435.754 213.749 432.598 215.211 429.234 215.49C425.87 215.768 422.516 214.845 419.769 212.884L410.411 206.201C405.973 203.031 400.191 202.752 395.157 204.845C390.111 206.937 386.155 211.248 385.254 216.624L383.365 227.96C382.224 234.832 376.264 239.879 369.29 239.879H355.419C348.445 239.879 342.498 234.832 341.344 227.96L339.468 216.624C338.567 211.248 334.599 206.937 329.565 204.832C324.518 202.752 318.736 203.031 314.298 206.201L304.941 212.884C299.273 216.941 291.5 216.294 286.555 211.362L276.753 201.548C274.364 199.16 272.899 196.001 272.62 192.634C272.342 189.267 273.267 185.911 275.232 183.162L281.914 173.817C285.084 169.379 285.363 163.597 283.283 158.551C281.191 153.517 276.867 149.548 271.491 148.66L260.155 146.758C253.283 145.617 248.236 139.658 248.236 132.697V118.825C248.236 111.851 253.283 105.892 260.155 104.75L271.491 102.861C276.867 101.973 281.191 98.0047 283.283 92.9708C285.376 87.9242 285.097 82.1422 281.914 77.7043L275.244 68.3466C273.28 65.5982 272.354 62.2416 272.633 58.8747C272.912 55.5078 274.376 52.349 276.766 49.9609L286.567 40.1594C288.956 37.7697 292.114 36.3051 295.481 36.0264C298.848 35.7478 302.205 36.6732 304.953 38.6379L314.298 45.3201C318.736 48.4901 324.531 48.769 329.565 46.6769C334.599 44.5847 338.567 40.2736 339.455 34.8973L341.357 23.5616Z" fill="white" stroke="white" stroke-width="11.5" stroke-linecap="round" stroke-linejoin="round"/>
<path d="M411.132 92.9907C428.547 119.408 421.249 154.944 394.832 172.36C368.415 189.775 332.878 182.477 315.463 156.06C298.048 129.643 305.346 94.106 331.763 76.6908C358.18 59.2755 393.717 66.5737 411.132 92.9907ZM348.377 104.22C348.258 104.786 348.252 105.371 348.36 105.94C348.467 106.508 348.685 107.051 349.001 107.535C349.318 108.02 349.727 108.437 350.205 108.764C350.683 109.09 351.221 109.319 351.787 109.438L371.814 113.632L341.094 133.884C340.118 134.527 339.438 135.532 339.203 136.677C338.968 137.822 339.197 139.013 339.84 139.989C340.484 140.965 341.488 141.646 342.633 141.881C343.778 142.116 344.97 141.886 345.946 141.243L376.665 120.991L372.627 141.05C372.513 141.618 372.512 142.202 372.624 142.77C372.736 143.339 372.959 143.879 373.28 144.361C373.601 144.843 374.014 145.257 374.494 145.58C374.975 145.903 375.515 146.127 376.083 146.241C376.651 146.355 377.235 146.356 377.803 146.244C378.372 146.132 378.912 145.91 379.394 145.589C379.876 145.268 380.29 144.855 380.613 144.374C380.936 143.893 381.16 143.354 381.274 142.786L387.403 112.352C387.633 111.212 387.402 110.027 386.762 109.056C386.122 108.085 385.124 107.407 383.986 107.168L353.6 100.807C353.033 100.687 352.448 100.681 351.878 100.788C351.309 100.895 350.766 101.113 350.281 101.43C349.795 101.747 349.378 102.157 349.051 102.635C348.724 103.114 348.495 103.653 348.377 104.22Z" fill="#1E75EB"/>
<path d="M383.48 286.508C387.24 280.661 394.695 278.39 401.085 281.145L413.785 286.618C420.175 289.373 423.643 296.351 421.974 303.099L419.228 314.233C417.918 319.51 419.864 325.033 423.634 328.945C427.437 332.843 432.857 334.876 438.175 333.725L449.378 331.292C452.672 330.577 456.113 331.055 459.089 332.64C462.064 334.225 464.38 336.815 465.624 339.948L470.73 352.812C473.313 359.285 470.824 366.658 464.862 370.261L455.048 376.185C450.391 379 447.851 384.188 447.775 389.638C447.704 395.077 450.087 400.417 454.675 403.359L464.299 409.574C470.158 413.339 472.422 420.776 469.667 427.167L464.188 439.878C461.434 446.268 454.467 449.741 447.708 448.067L436.574 445.322C431.297 444.011 425.779 445.945 421.874 449.732C417.963 453.53 415.935 458.938 417.087 464.257L419.515 475.471C420.994 482.267 417.331 489.134 410.859 491.718L397.994 496.823C394.864 498.067 391.394 498.161 388.202 497.087C385.009 496.014 382.3 493.843 380.557 490.961L374.622 481.141C371.807 476.484 366.619 473.945 361.18 473.874C355.729 473.798 350.401 476.185 347.453 480.756L341.245 490.398C337.485 496.244 330.03 498.515 323.64 495.761L310.929 490.282C304.538 487.527 301.082 480.554 302.739 473.801L305.497 462.672C306.795 457.39 304.861 451.872 301.08 447.955C297.277 444.057 291.868 442.029 286.55 443.181L275.336 445.608C268.539 447.087 261.672 443.425 259.089 436.952L253.984 424.088C252.737 420.955 252.643 417.482 253.717 414.287C254.792 411.092 256.965 408.382 259.851 406.639L269.665 400.715C274.323 397.9 276.862 392.712 276.95 387.267C277.021 381.828 274.626 376.483 270.05 373.546L260.414 367.326C254.567 363.566 252.297 356.112 255.046 349.733L260.525 337.022C263.279 330.632 270.258 327.164 277.006 328.833L288.139 331.579C293.416 332.889 298.946 330.96 302.851 327.173C306.762 323.375 308.79 317.967 307.626 312.643L305.21 301.434C304.496 298.139 304.973 294.698 306.559 291.723C308.144 288.748 310.733 286.432 313.866 285.187L326.719 280.077C329.851 278.83 333.324 278.736 336.52 279.81C339.715 280.885 342.425 283.059 344.168 285.944L350.092 295.759C352.906 300.416 358.106 302.96 363.545 303.031C368.984 303.103 374.324 300.72 377.26 296.144L383.48 286.508Z" fill="white" stroke="white" stroke-width="11.5" stroke-linecap="round" stroke-linejoin="round"/>
<path d="M309.381 363.44C296.061 392.141 308.531 426.209 337.232 439.529C365.932 452.849 400 440.379 413.32 411.679C426.64 382.978 414.171 348.91 385.47 335.59C356.77 322.27 322.702 334.74 309.381 363.44ZM373.107 365.272C373.308 365.815 373.4 366.392 373.378 366.97C373.356 367.549 373.221 368.117 372.979 368.643C372.738 369.169 372.395 369.643 371.97 370.036C371.546 370.43 371.048 370.736 370.505 370.937L351.318 378.044L384.694 393.534C385.754 394.026 386.575 394.919 386.977 396.017C387.379 397.115 387.328 398.327 386.836 399.387C386.344 400.447 385.451 401.269 384.353 401.67C383.255 402.072 382.043 402.021 380.983 401.529L347.608 386.04L354.565 405.281C354.762 405.826 354.849 406.404 354.823 406.983C354.796 407.561 354.656 408.129 354.409 408.653C354.163 409.177 353.816 409.648 353.388 410.038C352.96 410.428 352.46 410.73 351.915 410.927C351.37 411.123 350.792 411.211 350.214 411.184C349.635 411.157 349.068 411.017 348.544 410.771C348.02 410.524 347.549 410.177 347.159 409.75C346.769 409.322 346.467 408.821 346.27 408.276L335.711 379.082C335.315 377.988 335.368 376.783 335.858 375.728C336.347 374.673 337.234 373.854 338.325 373.45L367.437 362.668C367.98 362.466 368.558 362.373 369.137 362.395C369.716 362.417 370.285 362.552 370.812 362.794C371.339 363.036 371.812 363.379 372.206 363.805C372.6 364.23 372.906 364.728 373.107 365.272Z" fill="#1E75EB"/>
</svg>
