<svg width="512" height="512" viewBox="0 0 512 512" fill="none" xmlns="http://www.w3.org/2000/svg">
<g clip-path="url(#clip0_2604_563)">
<rect width="512" height="512" fill="#1E75EB"/>
<g filter="url(#filter0_d_2604_563)">
<path d="M-6.5582 -4.58486L276.035 -1.95042L-62.4802 272.432L-6.5582 -4.58486Z" fill="#0054C6"/>
</g>
<path d="M74.3697 60.1602V91.1182H49.4902L74.3697 60.1602Z" fill="white"/>
<path d="M74.3697 48.9922C74.3697 52.4039 73.0591 55.6759 70.7262 58.0883C68.3933 60.5007 65.2292 61.856 61.93 61.856C58.6308 61.856 55.4667 60.5007 53.1338 58.0883C50.8008 55.6759 49.4902 52.4039 49.4902 48.9922H74.3697V48.9922Z" fill="white"/>
<path d="M78.469 91.1177C78.469 87.706 79.7871 84.4341 82.1332 82.0216C84.4794 79.6092 87.6615 78.2539 90.9794 78.2539C94.2974 78.2539 97.4795 79.6092 99.8256 82.0216C102.172 84.4341 103.49 87.706 103.49 91.1177H78.469Z" fill="white"/>
<path d="M78.469 79.9502V48.9922H103.49L78.469 79.9502Z" fill="white"/>
</g>
<path d="M164.872 197.303C165.667 192.516 169.819 189 174.677 189H184.332C189.19 189 193.342 192.516 194.137 197.303L195.453 205.2C196.071 208.946 198.845 211.949 202.343 213.415C205.859 214.864 209.895 214.67 212.987 212.461L219.497 207.806C221.412 206.437 223.75 205.793 226.096 205.987C228.441 206.181 230.642 207.201 232.306 208.866L239.134 215.703C242.579 219.139 243.02 224.554 240.194 228.511L235.539 235.022C233.33 238.113 233.136 242.141 234.593 245.657C236.051 249.164 239.054 251.929 242.808 252.547L250.697 253.872C255.493 254.667 259 258.81 259 263.668V273.332C259 278.19 255.493 282.342 250.697 283.137L242.8 284.453C239.054 285.071 236.051 287.836 234.593 291.343C233.136 294.859 233.33 298.887 235.539 301.978L240.194 308.497C243.02 312.446 242.57 317.861 239.134 321.306L232.297 328.134C230.634 329.796 228.435 330.815 226.091 331.009C223.748 331.203 221.411 330.56 219.497 329.194L212.978 324.539C209.887 322.33 205.859 322.136 202.352 323.593C198.836 325.051 196.08 328.054 195.453 331.8L194.137 339.697C193.342 344.484 189.19 348 184.332 348H174.668C169.81 348 165.667 344.484 164.863 339.697L163.556 331.8C162.929 328.054 160.164 325.051 156.657 323.585C153.141 322.136 149.113 322.33 146.022 324.539L139.503 329.194C135.554 332.02 130.139 331.57 126.694 328.134L119.866 321.297C118.201 319.633 117.181 317.433 116.987 315.087C116.793 312.742 117.437 310.403 118.806 308.488L123.461 301.978C125.67 298.887 125.864 294.859 124.415 291.343C122.958 287.836 119.946 285.071 116.2 284.453L108.303 283.128C103.516 282.333 100 278.181 100 273.332V263.668C100 258.81 103.516 254.658 108.303 253.863L116.2 252.547C119.946 251.929 122.958 249.164 124.415 245.657C125.873 242.141 125.679 238.113 123.461 235.022L118.815 228.503C117.446 226.588 116.802 224.25 116.996 221.904C117.19 219.559 118.21 217.358 119.875 215.694L126.703 208.866C128.367 207.201 130.567 206.181 132.913 205.987C135.258 205.793 137.597 206.437 139.511 207.806L146.022 212.461C149.113 214.67 153.15 214.864 156.657 213.406C160.164 211.949 162.929 208.946 163.547 205.2L164.872 197.303Z" fill="white" stroke="white" stroke-width="11.5" stroke-linecap="round" stroke-linejoin="round"/>
<path d="M176.51 253.939V298.125H141L176.51 253.939Z" fill="#1E75EB"/>
<path d="M176.51 238C176.51 242.869 174.64 247.54 171.31 250.983C167.98 254.426 163.464 256.36 158.755 256.36C154.046 256.36 149.53 254.426 146.2 250.983C142.871 247.54 141 242.869 141 238H176.51V238Z" fill="#1E75EB"/>
<path d="M182.361 298.126C182.361 293.257 184.242 288.586 187.591 285.143C190.939 281.7 195.481 279.766 200.217 279.766C204.952 279.766 209.494 281.7 212.843 285.143C216.192 288.586 218.073 293.257 218.073 298.126H182.361Z" fill="#1E75EB"/>
<path d="M182.361 282.186V238H218.073L182.361 282.186Z" fill="#1E75EB"/>
<path d="M324.872 105.303C325.667 100.516 329.819 97 334.677 97H344.332C349.19 97 353.342 100.516 354.137 105.303L355.453 113.2C356.071 116.946 358.845 119.949 362.343 121.415C365.859 122.864 369.895 122.67 372.987 120.461L379.497 115.806C381.412 114.437 383.75 113.793 386.096 113.987C388.441 114.181 390.642 115.201 392.306 116.866L399.134 123.703C402.579 127.139 403.02 132.554 400.194 136.511L395.539 143.022C393.33 146.113 393.136 150.141 394.593 153.657C396.051 157.164 399.054 159.929 402.808 160.547L410.697 161.872C415.493 162.667 419 166.81 419 171.668V181.332C419 186.19 415.493 190.342 410.697 191.137L402.8 192.453C399.054 193.071 396.051 195.836 394.593 199.343C393.136 202.859 393.33 206.887 395.539 209.978L400.194 216.497C403.02 220.446 402.57 225.861 399.134 229.306L392.297 236.134C390.634 237.796 388.435 238.815 386.091 239.009C383.748 239.203 381.411 238.56 379.497 237.194L372.978 232.539C369.887 230.33 365.859 230.136 362.352 231.593C358.836 233.051 356.08 236.054 355.453 239.8L354.137 247.697C353.342 252.484 349.19 256 344.332 256H334.668C329.81 256 325.667 252.484 324.863 247.697L323.556 239.8C322.929 236.054 320.164 233.051 316.657 231.585C313.141 230.136 309.113 230.33 306.022 232.539L299.503 237.194C295.554 240.02 290.139 239.57 286.694 236.134L279.866 229.297C278.201 227.633 277.181 225.433 276.987 223.087C276.793 220.742 277.437 218.403 278.806 216.488L283.461 209.978C285.67 206.887 285.864 202.859 284.415 199.343C282.958 195.836 279.946 193.071 276.2 192.453L268.303 191.128C263.516 190.333 260 186.181 260 181.332V171.668C260 166.81 263.516 162.658 268.303 161.863L276.2 160.547C279.946 159.929 282.958 157.164 284.415 153.657C285.873 150.141 285.679 146.113 283.461 143.022L278.815 136.503C277.446 134.588 276.802 132.25 276.996 129.904C277.19 127.559 278.21 125.358 279.875 123.694L286.703 116.866C288.367 115.201 290.567 114.181 292.913 113.987C295.258 113.793 297.597 114.437 299.511 115.806L306.022 120.461C309.113 122.67 313.15 122.864 316.657 121.406C320.164 119.949 322.929 116.946 323.547 113.2L324.872 105.303Z" fill="white" stroke="white" stroke-width="11.5" stroke-linecap="round" stroke-linejoin="round"/>
<path d="M373.396 153.984C385.555 172.427 380.459 197.237 362.016 209.396C343.573 221.555 318.763 216.459 306.604 198.016C294.445 179.573 299.541 154.763 317.984 142.604C336.427 130.445 361.237 135.541 373.396 153.984ZM329.583 161.824C329.5 162.219 329.496 162.627 329.571 163.024C329.646 163.421 329.798 163.8 330.019 164.138C330.24 164.477 330.526 164.768 330.859 164.996C331.193 165.224 331.569 165.384 331.964 165.467L345.946 168.395L324.498 182.534C323.817 182.983 323.342 183.684 323.178 184.484C323.014 185.283 323.174 186.115 323.623 186.796C324.072 187.478 324.774 187.953 325.573 188.117C326.372 188.281 327.204 188.121 327.886 187.672L349.333 173.533L346.514 187.537C346.434 187.933 346.433 188.341 346.512 188.738C346.59 189.135 346.745 189.512 346.969 189.849C347.193 190.185 347.481 190.474 347.817 190.7C348.153 190.925 348.53 191.082 348.926 191.161C349.323 191.241 349.731 191.242 350.127 191.163C350.524 191.085 350.901 190.93 351.238 190.706C351.575 190.482 351.864 190.194 352.089 189.858C352.314 189.522 352.471 189.145 352.551 188.749L356.83 167.501C356.99 166.705 356.829 165.878 356.382 165.2C355.935 164.522 355.238 164.048 354.444 163.882L333.229 159.441C332.833 159.357 332.425 159.353 332.027 159.427C331.63 159.502 331.251 159.655 330.912 159.876C330.573 160.097 330.282 160.383 330.054 160.717C329.826 161.052 329.666 161.428 329.583 161.824Z" fill="#1E75EB"/>
<path d="M354.091 289.09C356.716 285.008 361.92 283.423 366.381 285.346L375.248 289.167C379.709 291.09 382.13 295.962 380.965 300.673L379.048 308.446C378.134 312.131 379.492 315.987 382.124 318.718C384.779 321.44 388.563 322.859 392.276 322.055L400.097 320.357C402.398 319.858 404.8 320.191 406.877 321.298C408.954 322.404 410.571 324.212 411.44 326.4L415.004 335.381C416.808 339.9 415.07 345.048 410.908 347.563L404.056 351.699C400.805 353.664 399.032 357.286 398.979 361.091C398.929 364.889 400.593 368.617 403.795 370.67L410.515 375.009C414.605 377.638 416.186 382.831 414.263 387.292L410.438 396.167C408.515 400.628 403.651 403.053 398.931 401.884L391.158 399.967C387.474 399.052 383.622 400.403 380.895 403.046C378.165 405.698 376.749 409.474 377.554 413.187L379.248 421.016C380.281 425.761 377.724 430.555 373.205 432.359L364.224 435.923C362.038 436.792 359.616 436.857 357.387 436.108C355.158 435.358 353.267 433.843 352.05 431.83L347.906 424.975C345.941 421.723 342.319 419.951 338.521 419.901C334.716 419.848 330.996 421.515 328.938 424.706L324.603 431.437C321.978 435.519 316.774 437.104 312.313 435.181L303.438 431.356C298.977 429.433 296.564 424.565 297.721 419.85L299.646 412.081C300.552 408.393 299.202 404.541 296.562 401.806C293.907 399.084 290.131 397.668 286.418 398.472L278.589 400.167C273.844 401.2 269.049 398.643 267.246 394.124L263.682 385.142C262.811 382.956 262.745 380.531 263.495 378.3C264.246 376.069 265.763 374.177 267.778 372.961L274.63 368.825C277.881 366.86 279.654 363.238 279.715 359.436C279.765 355.638 278.093 351.907 274.899 349.857L268.171 345.514C264.089 342.889 262.504 337.685 264.423 333.231L268.248 324.357C270.171 319.895 275.043 317.474 279.755 318.639L287.528 320.557C291.212 321.471 295.072 320.124 297.799 317.481C300.529 314.829 301.945 311.053 301.132 307.337L299.446 299.511C298.947 297.211 299.28 294.808 300.387 292.731C301.494 290.654 303.302 289.037 305.489 288.168L314.462 284.6C316.649 283.73 319.074 283.664 321.305 284.414C323.535 285.164 325.428 286.682 326.644 288.697L330.78 295.549C332.745 298.8 336.375 300.577 340.173 300.626C343.97 300.676 347.698 299.012 349.748 295.817L354.091 289.09Z" fill="white" stroke="white" stroke-width="11.5" stroke-linecap="round" stroke-linejoin="round"/>
<path d="M302.358 342.802C293.059 362.84 301.764 386.625 321.802 395.924C341.839 405.224 365.624 396.518 374.924 376.48C384.223 356.443 375.518 332.658 355.48 323.359C335.442 314.059 311.658 322.765 302.358 342.802ZM346.848 344.081C346.989 344.46 347.053 344.863 347.038 345.267C347.023 345.671 346.928 346.068 346.759 346.435C346.591 346.802 346.351 347.133 346.055 347.407C345.759 347.682 345.411 347.896 345.032 348.036L331.637 352.999L354.938 363.813C355.678 364.156 356.251 364.78 356.532 365.546C356.812 366.312 356.777 367.159 356.434 367.899C356.09 368.639 355.466 369.213 354.7 369.493C353.934 369.774 353.087 369.738 352.347 369.395L329.046 358.581L333.904 372.014C334.041 372.395 334.102 372.798 334.083 373.202C334.065 373.606 333.967 374.002 333.795 374.368C333.623 374.734 333.381 375.063 333.082 375.335C332.783 375.607 332.434 375.818 332.053 375.955C331.673 376.093 331.269 376.154 330.866 376.135C330.462 376.116 330.065 376.018 329.7 375.846C329.334 375.675 329.005 375.432 328.733 375.134C328.46 374.835 328.249 374.485 328.112 374.105L320.74 353.723C320.464 352.959 320.501 352.118 320.843 351.381C321.184 350.645 321.804 350.073 322.565 349.791L342.89 342.263C343.269 342.122 343.673 342.058 344.077 342.073C344.481 342.088 344.879 342.183 345.246 342.351C345.614 342.52 345.945 342.76 346.22 343.057C346.494 343.354 346.708 343.702 346.848 344.081Z" fill="#1E75EB"/>
<defs>
<filter id="filter0_d_2604_563" x="-87.4802" y="-29.584" width="388.515" height="327.016" filterUnits="userSpaceOnUse" color-interpolation-filters="sRGB">
<feFlood flood-opacity="0" result="BackgroundImageFix"/>
<feColorMatrix in="SourceAlpha" type="matrix" values="0 0 0 0 0 0 0 0 0 0 0 0 0 0 0 0 0 0 127 0" result="hardAlpha"/>
<feOffset/>
<feGaussianBlur stdDeviation="12.5"/>
<feColorMatrix type="matrix" values="0 0 0 0 0 0 0 0 0 0 0 0 0 0 0 0 0 0 0.25 0"/>
<feBlend mode="normal" in2="BackgroundImageFix" result="effect1_dropShadow_2604_563"/>
<feBlend mode="normal" in="SourceGraphic" in2="effect1_dropShadow_2604_563" result="shape"/>
</filter>
<clipPath id="clip0_2604_563">
<rect width="512" height="512" fill="white"/>
</clipPath>
</defs>
</svg>
